<svg width="50" height="50" viewBox="0 0 50 50" fill="none" xmlns="http://www.w3.org/2000/svg">
<path d="M26.9043 9.375L17.5293 18.75H8.1543V31.25H17.5293L26.9043 40.625V9.375ZM31.9297 12.077L31.4746 13.7749C36.5592 15.1372 40.0879 19.7358 40.0879 25C40.0879 30.2641 36.5592 34.8627 31.4746 36.2251L31.9297 37.923C37.7744 36.3569 41.8457 31.051 41.8457 25C41.8457 18.9489 37.7744 13.6431 31.9297 12.077ZM30.7163 16.6048L30.2614 18.3027C33.2969 19.116 35.4004 21.8576 35.4004 25C35.4004 28.1424 33.2969 30.884 30.2614 31.6973L30.7163 33.3952C34.5119 32.3781 37.1582 28.9294 37.1582 25C37.1582 21.0705 34.5119 17.6219 30.7163 16.6048ZM29.503 21.1324L29.0482 22.8304C30.0342 23.0947 30.7129 23.9792 30.7129 25C30.7129 26.0208 30.0342 26.9053 29.0481 27.1696L29.503 28.8676C31.2495 28.3996 32.4708 26.808 32.4708 25C32.4708 23.1921 31.2495 21.6004 29.503 21.1324Z" fill="#9747FF"/>
</svg>
