<!DOCTYPE svg PUBLIC "-//W3C//DTD SVG 1.1//EN" "http://www.w3.org/Graphics/SVG/1.1/DTD/svg11.dtd">
<!-- Uploaded to: SVG Repo, www.svgrepo.com, Transformed by: SVG Repo Mixer Tools -->
<svg width="256px" height="256px" viewBox="-10.08 -10.08 68.16 68.16" id="Layer_1" data-name="Layer 1" xmlns="http://www.w3.org/2000/svg" fill="#000000" stroke="#000000" stroke-width="1.488" transform="rotate(0)matrix(1, 0, 0, 1, 0, 0)">
<g id="SVGRepo_bgCarrier" stroke-width="0" transform="translate(4.559999999999999,4.559999999999999), scale(0.81)">
<path transform="translate(-10.08, -10.08), scale(2.13)" d="M16,30.120920727029443C18.550614041137603,30.625145297573283,20.27092506637457,27.406717357732813,22.238139373413283,25.706734335885063C23.9281626423639,24.24628803195975,25.8791716571128,22.963275095010555,26.690846050582934,20.882345798943884C27.483293567780773,18.85070938488599,26.75663505204084,16.649516237514174,26.619863493539903,14.473094144439337C26.469456364923964,12.079691588648188,27.728595046543752,8.95464629923276,25.847784060028594,7.466846537366273C23.847238249016822,5.884331546457413,20.854960528162152,8.499911555519018,18.365570942788096,7.9436052274593685C16.145519616038012,7.447488183769431,14.850924165590838,4.034250405202742,12.626927105986372,4.512368689014544C10.45595190218595,4.9790882533037335,10.477652164541052,8.276617999456624,9.0208643364195,9.952544522620293C7.560611871615348,11.632456853735818,4.91680372981758,12.212265960734271,4.125443137083799,14.292696472303605C3.294891709238274,16.47615689196919,3.3521098287842648,19.271871769156743,4.76962908497466,21.128738548673216C6.179704335374628,22.9758541188157,9.354268272373222,22.0658981733827,11.168246819827118,23.51835470306969C13.34112948791195,25.258186535112742,13.269247130316712,29.581084957771584,16,30.120920727029443" fill="#5b0b73" strokewidth="0"/>
</g>
<g id="SVGRepo_tracerCarrier" stroke-linecap="round" stroke-linejoin="round" stroke="#919191" stroke-width="2.304"> <defs> <style> .cls-1 { fill: none; stroke:#000000; stroke-linecap: round; stroke-linejoin: round; } </style> </defs> <line class="cls-1" x1="12.62" y1="24.31" x2="17.94" y2="11.42"/> <line class="cls-1" x1="23.04" y1="24.35" x2="17.94" y2="11.42"/> <line class="cls-1" x1="21.34" y1="20.02" x2="14.39" y2="20.02"/> <g> <line class="cls-1" x1="32.63" y1="25.38" x2="39.35" y2="25.38"/> <path class="cls-1" d="M35.68,25.38c0,4.34-5.29,11.51-10.59,12.61"/> <path class="cls-1" d="M27.93,32.79c2.13,2.4,5.61,4.74,8.82,5.2"/> </g> <rect class="cls-1" x="5.5" y="5.5" width="24.67" height="24.67" rx="3.64" ry="3.64"/> <path class="cls-1" d="M17.83,30.17v8.69c0,2,1.64,3.64,3.64,3.64h17.38c2,0,3.64-1.64,3.64-3.64V21.47c0-2-1.64-3.64-3.64-3.64h-8.69"/> </g>
<g id="SVGRepo_iconCarrier"> <defs> <style> .cls-1 { fill: none; stroke:#000000; stroke-linecap: round; stroke-linejoin: round; } </style> </defs> <line class="cls-1" x1="12.62" y1="24.31" x2="17.94" y2="11.42"/> <line class="cls-1" x1="23.04" y1="24.35" x2="17.94" y2="11.42"/> <line class="cls-1" x1="21.34" y1="20.02" x2="14.39" y2="20.02"/> <g> <line class="cls-1" x1="32.63" y1="25.38" x2="39.35" y2="25.38"/> <path class="cls-1" d="M35.68,25.38c0,4.34-5.29,11.51-10.59,12.61"/> <path class="cls-1" d="M27.93,32.79c2.13,2.4,5.61,4.74,8.82,5.2"/> </g> <rect class="cls-1" x="5.5" y="5.5" width="24.67" height="24.67" rx="3.64" ry="3.64"/> <path class="cls-1" d="M17.83,30.17v8.69c0,2,1.64,3.64,3.64,3.64h17.38c2,0,3.64-1.64,3.64-3.64V21.47c0-2-1.64-3.64-3.64-3.64h-8.69"/> </g>
</svg>