<svg width="36" height="36" viewBox="0 0 36 36" fill="none" xmlns="http://www.w3.org/2000/svg">
<g clip-path="url(#clip0_4906_6)">
<path d="M23.43 16.83C23.243 16.6404 22.9883 16.5328 22.722 16.5309C22.4557 16.529 22.1996 16.633 22.01 16.82C21.8203 17.007 21.7127 17.2616 21.7109 17.5279C21.709 17.7942 21.813 18.0504 22 18.24L25.72 22H7.82996C7.56474 22 7.31039 22.1054 7.12285 22.2929C6.93531 22.4804 6.82996 22.7348 6.82996 23C6.82996 23.2652 6.93531 23.5196 7.12285 23.7071C7.31039 23.8946 7.56474 24 7.82996 24H25.72L22 27.7C21.9074 27.7932 21.8341 27.9038 21.7842 28.0254C21.7344 28.1469 21.7089 28.2771 21.7094 28.4085C21.7099 28.5399 21.7362 28.6699 21.7869 28.7912C21.8376 28.9124 21.9117 29.0224 22.005 29.115C22.0982 29.2076 22.2088 29.2809 22.3303 29.3307C22.4519 29.3806 22.5821 29.406 22.7135 29.4056C22.8449 29.4051 22.9749 29.3788 23.0961 29.328C23.2173 29.2773 23.3274 29.2032 23.42 29.11L29.53 23L23.43 16.83Z" fill="black"/>
<path d="M13.24 18.45C13.4387 18.4512 13.6331 18.3931 13.7987 18.2833C13.9642 18.1735 14.0932 18.0169 14.1694 17.8335C14.2456 17.65 14.2654 17.4481 14.2263 17.2533C14.1873 17.0586 14.0911 16.8799 13.95 16.74L10.24 13H28.12C28.3853 13 28.6396 12.8946 28.8272 12.7071C29.0147 12.5196 29.12 12.2652 29.12 12C29.12 11.7348 29.0147 11.4804 28.8272 11.2929C28.6396 11.1054 28.3853 11 28.12 11H10.24L13.95 7.27C14.0426 7.17676 14.1159 7.0662 14.1658 6.94463C14.2156 6.82306 14.2411 6.69286 14.2406 6.56146C14.2401 6.43007 14.2138 6.30005 14.1631 6.17884C14.1124 6.05762 14.0383 5.94758 13.945 5.855C13.8518 5.76242 13.7412 5.68911 13.6197 5.63925C13.4981 5.5894 13.3679 5.56398 13.2365 5.56444C12.9711 5.56538 12.717 5.6717 12.53 5.86L6.42004 12L12.53 18.14C12.6218 18.2363 12.7319 18.3133 12.8538 18.3666C12.9757 18.4198 13.107 18.4482 13.24 18.45Z" fill="black"/>
</g>
<defs>
<clipPath id="clip0_4906_6">
<rect width="36" height="36" fill="white"/>
</clipPath>
</defs>
</svg>
