<svg width="35" height="20" viewBox="0 0 35 20" fill="none" xmlns="http://www.w3.org/2000/svg">
<path d="M0.764798 0.764798C1.25465 0.275098 1.91893 0 2.61158 0C3.30422 0 3.96851 0.275098 4.45836 0.764798L17.3884 13.6949L30.3185 0.764798C30.8111 0.288977 31.471 0.025687 32.1559 0.0316385C32.8408 0.0375901 33.4959 0.312306 33.9802 0.796617C34.4645 1.28093 34.7393 1.93608 34.7452 2.62098C34.7512 3.30587 34.4879 3.9657 34.012 4.45836L19.2352 19.2352C18.7454 19.7249 18.0811 20 17.3884 20C16.6958 20 16.0315 19.7249 15.5416 19.2352L0.764798 4.45836C0.275098 3.96851 0 3.30422 0 2.61158C0 1.91893 0.275098 1.25465 0.764798 0.764798Z" fill="white"/>
</svg>
